PathFileType	4	(x/y/z)	S10_PSF_T15
DataRate	CameraRate	NumFrames	NumMarkers	Units	OrigDataRate	OrigDataStartFrame	OrigNumFrames
240	240	7	51	mm	240	275	439
Frame#	Time	Sternum			R.Acromium			L.Acromium			Top.Head			R.ASIS			L.ASIS			R.PSIS			L.PSIS			R.Great.Tro			L.Great.Tro			R.Iliac.Crest			L.Iliac.Crest			V.Sacral			R.Thigh.Upper.Post			R.Thigh.Lower.Ant			R.Thigh.Lower.Post			R.Thigh.Upper.Ant			R.Knee.Lat			R.Knee.Med			R.Shank.Upper.Post			R.Shank.Lower.Ant			R.Shank.Lower.Post			R.Shank.Upper.Ant			R.Ankle.Lat			R.Ankle.Med			R.Heel.Upper			R.Heel.Med			R.Heel.Lat			R.Toe.Lat			R.Toe.Med			R.Toe.Tip			L.Thigh.Upper.Post			L.Thigh.Lower.Ant			L.Thigh.Lower.Post			L.Thigh.Upper.Ant			L.Knee.Lat			L.Knee.Med			L.Shank.Upper.Post			L.Shank.Lower.Ant			L.Shank.Lower.Post			L.Shank.Upper.Ant			L.Ankle.Lat			L.Ankle.Med			L.Heel.Upper			L.Heel.Med			L.Heel.Lat			L.Toe.Lat			L.Toe.Med			L.Toe.Tip			Cervical.Spine			Back			
		X1	Y1	Z1	X2	Y2	Z2	X3	Y3	Z3	X4	Y4	Z4	X5	Y5	Z5	X6	Y6	Z6	X7	Y7	Z7	X8	Y8	Z8	X9	Y9	Z9	X10	Y10	Z10	X11	Y11	Z11	X12	Y12	Z12	X13	Y13	Z13	X14	Y14	Z14	X15	Y15	Z15	X16	Y16	Z16	X17	Y17	Z17	X18	Y18	Z18	X19	Y19	Z19	X20	Y20	Z20	X21	Y21	Z21	X22	Y22	Z22	X23	Y23	Z23	X24	Y24	Z24	X25	Y25	Z25	X26	Y26	Z26	X27	Y27	Z27	X28	Y28	Z28	X29	Y29	Z29	X30	Y30	Z30	X31	Y31	Z31	X32	Y32	Z32	X33	Y33	Z33	X34	Y34	Z34	X35	Y35	Z35	X36	Y36	Z36	X37	Y37	Z37	X38	Y38	Z38	X39	Y39	Z39	X40	Y40	Z40	X41	Y41	Z41	X42	Y42	Z42	X43	Y43	Z43	X44	Y44	Z44	X45	Y45	Z45	X46	Y46	Z46	X47	Y47	Z47	X48	Y48	Z48	X49	Y49	Z49	X50	Y50	Z50	X51	Y51	Z51	

275	1.1417	-4.6123	1241.3	340.55	-93.265	1403.2	504.96	-147.97	1418.1	200.8	-165.77	1716.5	373.09	-51.788	973.67	462.79	-62.203	1001.2	233	-256.1	996	380.21	-255.2	1004.1	299.03	-133.11	900.55	538.33	-117.46	937.55	172.64	-144.64	1051.7	511.36	-134.42	1070.5	208.09	-276.02	964.93	343.73	-188.8	701.16	524.03	-163.37	611.33	480.66	-226.29	620.98	507.79	-121.95	692.05	493.56	-282.79	506.68	468.53	-286.82	517.09	340.55	-422.89	314.91	465.66	-378.29	235.39	447.8	-442.88	244.02	456.73	-350.29	306.5	455.34	-458.39	132.11	431.03	-445.42	144.78	353.46	-536.13	89.91	384.81	-527.53	61.425	357.6	-531.6	63.671	419.15	-362.01	37.198	463.5	-332.29	42.528	353.21	-272.73	49.847	395.22	-70.071	657.38	172.85	26.304	605.14	191.38	-37.852	568.79	193.25	1.2492	690.42	171.54	27.912	503.86	200.55	40.024	502.77	332.75	60.121	283.05	206.44	160.26	235.06	214.43	98.337	215.33	216.45	122.69	301.8	204.66	186.8	114.99	225.42	200.07	137.2	309.13	143.86	64.055	273.58	169.87	41.497	308.72	161.79	37.794	244.72	325.71	96.358	197.98	350.11	121.18	301.5	389.87	154.81	252.83	-194.91	1467.5	377.37	-284.5	1260.1	380.09
276	1.1458	1.2247	1240.3	339.88	-87.354	1402.3	504.27	-142.59	1417.1	200.17	-160.32	1715.6	372.52	-45.809	972.79	462.4	-56.284	1000.4	232.6	-250.14	995.01	379.77	-249.3	1003.2	298.58	-127.27	899.69	538.02	-111.5	936.94	172.23	-138.76	1050.7	510.96	-128.58	1069.6	207.66	-270.05	963.94	343.27	-183.44	700.49	523.8	-158.13	610.54	480.62	-221.09	620.38	507.6	-116.5	691.16	493.52	-277.95	506.2	468.37	-281.7	516.49	340.43	-419.75	315.72	465.96	-376.04	235.72	447.89	-440.47	245.06	457.11	-347.24	306.53	455.36	-457.28	133.22	431.44	-444.3	145.76	353.82	-535.56	91.537	385.16	-527.09	63.169	357.91	-531.15	65.176	419.47	-361.8	37.114	463.62	-332.09	42.559	353.35	-272.53	49.585	395.28	-63.605	656.93	172.49	32.78	604.81	191.47	-31.402	568.39	193.09	7.7076	690.03	171.46	34.121	503.28	200.71	45.858	502.46	332.84	65.638	282.4	206.93	165.58	234.15	215.3	103.63	214.58	217.06	128.24	300.96	205.42	191.72	114.36	226.29	204.63	136.24	310.15	148.37	64.184	274.43	173.88	41.322	309.58	166.04	37.781	245.53	330.45	94.81	199.53	354.53	119.47	303.21	394.79	152.72	254.65	-189.13	1466.6	376.77	-278.68	1259.1	379.82
277	1.15	7.0873	1239.3	339.2	-81.439	1401.4	503.55	-137.17	1416.1	199.53	-154.88	1714.6	371.94	-39.784	971.94	461.98	-50.338	999.78	232.17	-244.15	994.06	379.34	-243.38	1002.3	298.14	-121.38	898.84	537.67	-105.53	936.38	171.81	-132.83	1049.8	510.56	-122.73	1068.9	207.21	-264.04	962.99	342.81	-177.98	699.82	523.54	-152.76	609.75	480.55	-215.75	619.76	507.39	-110.96	690.3	493.44	-272.94	505.69	468.19	-276.43	515.86	340.28	-416.48	316.56	466.26	-373.69	236.06	447.97	-437.94	246.14	457.5	-344.07	306.56	455.38	-456.11	134.39	431.87	-443.11	146.79	354.19	-534.9	93.26	385.53	-526.6	65.016	358.23	-530.66	66.78	419.81	-361.59	37.033	463.75	-331.89	42.587	353.5	-272.32	49.322	395.34	-57.017	656.55	172.15	39.379	604.55	191.61	-24.828	568.07	192.95	14.283	689.7	171.4	40.449	502.78	200.92	51.815	502.23	332.95	71.018	281.81	207.41	170.7	233.17	216.17	108.69	213.85	217.64	133.67	300.12	206.21	196.23	113.68	227.09	208.82	135.15	311.13	152.4	64.387	275.22	177.34	41.141	310.35	169.72	37.816	246.26	334.7	92.93	201	358.55	117.31	304.84	399.36	150.11	256.39	-183.34	1465.7	376.15	-272.84	1258.2	379.53
278	1.1542	12.975	1238.4	338.5	-75.522	1400.5	502.81	-131.74	1415.1	198.86	-149.43	1713.7	371.36	-33.711	971.13	461.53	-44.363	999.18	231.72	-238.12	993.15	378.91	-237.42	1001.5	297.69	-115.44	897.99	537.29	-99.533	935.89	171.37	-126.85	1048.9	510.14	-116.85	1068.1	206.75	-258	962.09	342.35	-172.42	699.15	523.23	-147.25	608.97	480.45	-210.28	619.13	507.14	-105.32	689.46	493.32	-267.76	505.15	467.98	-271	515.19	340.11	-413.06	317.42	466.56	-371.25	236.42	448.06	-435.31	247.26	457.9	-340.78	306.59	455.4	-454.86	135.63	432.32	-441.84	147.86	354.58	-534.14	95.083	385.93	-526.06	66.972	358.57	-530.12	68.49	420.16	-361.36	36.956	463.89	-331.67	42.611	353.65	-272.12	49.06	395.4	-50.325	656.22	171.82	46.083	604.36	191.78	-18.148	567.81	192.85	20.96	689.43	171.36	46.887	502.37	201.16	57.879	502.08	333.09	76.279	281.3	207.86	175.63	232.15	217.01	113.55	213.14	218.16	139	299.28	207.01	200.38	112.95	227.81	212.67	133.93	312.05	155.97	64.666	275.95	180.3	40.962	311.05	172.89	37.905	246.9	338.51	90.75	202.38	362.2	114.76	306.36	403.61	147.02	258.04	-177.55	1464.9	375.5	-266.96	1257.3	379.21
279	1.1583	18.887	1237.6	337.78	-69.604	1399.7	502.06	-126.27	1414.2	198.18	-143.98	1712.9	370.77	-27.594	970.36	461.06	-38.36	998.64	231.24	-232.05	992.29	378.47	-231.43	1000.7	297.25	-109.44	897.16	536.88	-93.513	935.47	170.93	-120.81	1048.1	509.72	-110.95	1067.5	206.27	-251.93	961.24	341.89	-166.75	698.47	522.88	-141.6	608.2	480.31	-204.67	618.48	506.85	-99.571	688.64	493.15	-262.4	504.57	467.75	-265.41	514.49	339.91	-409.49	318.3	466.85	-368.7	236.8	448.14	-432.55	248.43	458.31	-337.36	306.62	455.42	-453.55	136.93	432.79	-440.49	148.98	355	-533.27	97.014	386.35	-525.45	69.042	358.92	-529.52	70.313	420.52	-361.13	36.884	464.02	-331.45	42.63	353.8	-271.91	48.799	395.45	-43.546	655.95	171.51	52.872	604.24	192	-11.381	567.62	192.78	27.721	689.23	171.34	53.426	502.04	201.44	64.032	502.02	333.24	81.438	280.87	208.28	180.4	231.1	217.83	118.24	212.48	218.63	144.24	298.45	207.81	204.2	112.2	228.46	216.22	132.63	312.93	159.15	65.019	276.62	182.81	40.796	311.66	175.6	38.05	247.45	341.91	88.307	203.65	365.52	111.86	307.76	407.57	143.51	259.57	-171.75	1464.1	374.84	-261.06	1256.4	378.87
280	1.1625	24.823	1236.8	337.05	-63.686	1399	501.29	-120.77	1413.3	197.48	-138.52	1712.1	370.18	-21.433	969.62	460.56	-32.33	998.17	230.74	-225.94	991.48	378.04	-225.4	1000	296.81	-103.38	896.33	536.44	-87.465	935.11	170.48	-114.73	1047.3	509.29	-105.03	1066.9	205.79	-245.82	960.43	341.43	-160.98	697.8	522.48	-135.82	607.44	480.13	-198.93	617.81	506.53	-93.727	687.86	492.94	-256.87	503.95	467.49	-259.67	513.76	339.67	-405.78	319.22	467.13	-366.05	237.21	448.21	-429.68	249.64	458.71	-333.81	306.65	455.43	-452.14	138.3	433.27	-439.05	150.15	355.42	-532.28	99.058	386.8	-524.77	71.233	359.28	-528.86	72.257	420.89	-360.88	36.819	464.16	-331.21	42.642	353.96	-271.69	48.539	395.5	-36.697	655.75	171.22	59.727	604.19	192.25	-4.5433	567.49	192.75	34.548	689.09	171.34	60.055	501.79	201.75	70.258	502.03	333.41	86.513	280.52	208.66	185.03	230.05	218.62	122.78	211.86	219.04	149.4	297.64	208.62	207.72	111.42	229.04	219.51	131.26	313.74	161.99	65.442	277.24	184.93	40.652	312.19	177.89	38.251	247.93	344.94	85.641	204.8	368.54	108.65	309.02	411.26	139.64	260.96	-165.94	1463.3	374.15	-255.13	1255.6	378.51
281	1.1667	30.781	1236.1	336.3	-57.769	1398.3	500.49	-115.25	1412.5	196.76	-133.07	1711.3	369.58	-15.231	968.92	460.04	-26.272	997.76	230.22	-219.81	990.72	377.62	-219.35	999.35	296.38	-97.279	895.53	535.97	-81.386	934.81	170.02	-108.58	1046.5	508.85	-99.086	1066.4	205.29	-239.68	959.69	340.97	-155.11	697.12	522.04	-129.9	606.69	479.91	-193.05	617.13	506.16	-87.784	687.1	492.68	-251.14	503.29	467.21	-253.76	513	339.41	-401.91	320.15	467.39	-363.28	237.64	448.29	-426.68	250.89	459.12	-330.12	306.69	455.44	-450.65	139.74	433.77	-437.52	151.37	355.86	-531.15	101.22	387.27	-524.01	73.552	359.64	-528.12	74.33	421.26	-360.62	36.763	464.29	-330.96	42.648	354.12	-271.48	48.28	395.55	-29.797	655.6	170.96	66.627	604.2	192.54	2.346	567.43	192.75	41.424	689.02	171.37	66.761	501.64	202.09	76.537	502.12	333.6	91.523	280.25	208.99	189.55	229	219.38	127.2	211.29	219.38	154.51	296.88	209.41	210.98	110.65	229.54	222.58	129.85	314.49	164.52	65.932	277.8	186.71	40.541	312.65	179.82	38.51	248.32	347.62	82.798	205.83	371.3	105.21	310.13	414.71	135.46	262.19	-160.14	1462.6	373.44	-249.18	1254.8	378.12
